<svg id="Layer_1" data-name="Layer 1" xmlns="http://www.w3.org/2000/svg" viewBox="0 0 291.92 63.08">
    <defs>
        <style>.cls-1{fill:#2c5639;}.cls-2{fill:#2c5539;}</style>
    </defs>
    <g id="endoca-logo">
        <path class="cls-1"
              d="M260.48,558.54H248.19V547h10.93a1.85,1.85,0,0,0,0-3.63H248.19V532.87h12.06a1.85,1.85,0,0,0,0-3.63H245.7a1.55,1.55,0,0,0-1.5,1.82v29.3a1.55,1.55,0,0,0,1.5,1.81h14.78a1.85,1.85,0,0,0,0-3.63"
              transform="translate(-152.28 -514.16)"/>
        <path class="cls-1"
              d="M287.24,528.78c-6.24,0-10.6,4.51-10.6,11V561c0,0.38.14,1.64,2,1.64s2-1.25,2-1.64V539.7c0-4.43,2.6-7.28,6.6-7.28s6.6,2.86,6.6,7.28V561c0,0.38.13,1.64,2,1.64s2-1.25,2-1.64V539.75c0-6.46-4.36-11-10.6-11"
              transform="translate(-152.28 -514.16)"/>
        <path class="cls-1"
              d="M323.77,529.24h-7.64a2.07,2.07,0,0,0-2,2v28.85a2.07,2.07,0,0,0,2,2h7.64c6.24,0,10.6-4.51,10.6-11v-11c0-6.46-4.36-11-10.6-11m0.05,29.3h-5.74V532.87h5.69c4,0,6.6,2.86,6.6,7.28v11.1c0,4.43-2.57,7.29-6.55,7.29"
              transform="translate(-152.28 -514.16)"/>
        <path class="cls-1"
              d="M360.3,528.69c-6.24,0-10.6,4.51-10.6,11v12.1c0,6.45,4.36,11,10.6,11s10.6-4.51,10.6-11v-12.1c0-6.46-4.36-11-10.6-11m0,30.4c-4,0-6.6-2.86-6.6-7.28v-12.2c0-4.43,2.59-7.28,6.6-7.28s6.6,2.86,6.6,7.28v12.2c0,4.42-2.58,7.28-6.6,7.28"
              transform="translate(-152.28 -514.16)"/>
        <path class="cls-1"
              d="M396.84,528.69c-6.24,0-10.6,4.51-10.6,11v12.1c0,6.45,4.36,11,10.6,11s10.6-4.19,10.6-10.42v-0.18c0-.39-0.15-1.64-2-1.64s-2,1.25-2,1.64v0.17c-0.09,4.31-2.49,6.79-6.6,6.79s-6.6-2.86-6.6-7.28v-12.2c0-4.43,2.6-7.28,6.6-7.28s6.51,2.48,6.6,6.78v0.18c0,0.38.14,1.63,2,1.63s2-1.25,2-1.63v-0.18c0-6.23-4.26-10.42-10.6-10.42"
              transform="translate(-152.28 -514.16)"/>
        <path class="cls-1"
              d="M433.6,528.78c-6.24,0-10.6,4.51-10.6,11V561c0,0.38.15,1.63,2,1.63s2-1.25,2-1.63V549.89h13.2V561c0,0.38.15,1.63,2,1.63s2-1.25,2-1.63V539.75c0-6.46-4.36-11-10.6-11m0,3.63c4,0,6.6,2.86,6.6,7.29v6.55H427V539.7c0-4.43,2.59-7.29,6.6-7.29"
              transform="translate(-152.28 -514.16)"/>
        <path class="cls-1"
              d="M204.59,514.65H204.4a19.39,19.39,0,0,0-17.12,10.58,16.27,16.27,0,0,0-15.12-10.58H172a19.22,19.22,0,0,0-19.19,19.19v23.73A19.22,19.22,0,0,0,172,576.76h0.2a19.36,19.36,0,0,0,17.12-10.58,16.27,16.27,0,0,0,15.13,10.58h0.19a19.21,19.21,0,0,0,19.18-19.19V533.84a19.21,19.21,0,0,0-19.18-19.19m-48.87,19.19A16.26,16.26,0,0,1,172,517.6h0.1a13.3,13.3,0,0,1,13.29,13.29c0,0.35,0,.68,0,1a0.08,0.08,0,0,0,0,0c-0.45,7.46-5.72,12.23-13.7,12.23-4.51,0-11.82,1.42-15.87,5.76v-16.1Zm16.43,40H172a16.25,16.25,0,0,1-16.23-16.24c0-10.19,15.73-10.43,15.88-10.44,9.53,0,16.06-5.95,16.63-14.93a16.39,16.39,0,0,1,16.16-14.6h0.19a16.26,16.26,0,0,1,16.23,16.24c0,10.19-15.73,10.44-15.89,10.44-9.51,0-16,5.93-16.62,14.89a16.36,16.36,0,0,1-16.16,14.64m48.68-16.24a16.25,16.25,0,0,1-16.23,16.24h-0.1a13.3,13.3,0,0,1-13.29-13.29c0-.35,0-0.7,0-1,0,0,0-.09,0-0.13h0c0.5-7.4,5.75-12.12,13.7-12.12,4.51,0,11.82-1.41,15.88-5.76v16.1Z"
              transform="translate(-152.28 -514.16)"/>
        <path class="cls-2"
              d="M204.59,577.25H204.4a16.84,16.84,0,0,1-15.19-9.94,19.92,19.92,0,0,1-17.06,9.94H172a19.7,19.7,0,0,1-19.68-19.68V533.84A19.7,19.7,0,0,1,172,514.16h0.2a16.84,16.84,0,0,1,15.19,9.94,19.94,19.94,0,0,1,17.06-9.94h0.19a19.69,19.69,0,0,1,19.67,19.67v23.73a19.69,19.69,0,0,1-19.67,19.68M189.34,565l0.38,1a15.86,15.86,0,0,0,14.68,10.26h0.19a18.73,18.73,0,0,0,18.7-18.71V533.84a18.73,18.73,0,0,0-18.7-18.71H204.4a19,19,0,0,0-16.69,10.32l-0.5,1-0.38-1a15.87,15.87,0,0,0-14.68-10.27H172a18.73,18.73,0,0,0-18.71,18.71v23.73A18.73,18.73,0,0,0,172,576.28h0.2A19,19,0,0,0,188.84,566Zm15.25,9.3h-0.1a13.79,13.79,0,0,1-13.77-13.77c0-.29,0-0.58,0-0.86l0-.34c0.51-7.64,6.08-12.57,14.18-12.57,4.78,0,11.71-1.52,15.52-5.6l0.83-.89v17.32a16.74,16.74,0,0,1-16.72,16.72m-12.87-14.75v0.17c0,0.27,0,.54,0,0.81a12.82,12.82,0,0,0,12.8,12.81h0.1a15.77,15.77,0,0,0,15.75-15.76v-15c-4.13,3.69-10.74,5.06-15.39,5.09-7.49,0-12.49,4.26-13.18,11.16h0.05l-0.09.57v0.11m-19.57,14.75H172a16.74,16.74,0,0,1-16.71-16.72c0-10.49,15.68-10.91,16.35-10.92,9.26,0,15.61-5.68,16.16-14.48a16.89,16.89,0,0,1,16.64-15.05h0.19a16.74,16.74,0,0,1,16.72,16.72c0,4.4-2.84,7.68-8.21,9.5a30.1,30.1,0,0,1-8.16,1.42c-9.22,0-15.56,5.67-16.14,14.44a16.87,16.87,0,0,1-16.64,15.09m32.25-56.21a15.91,15.91,0,0,0-15.68,14.17c-0.59,9.33-7.31,15.37-17.11,15.37-0.62,0-15.4.4-15.4,10A15.77,15.77,0,0,0,172,573.33h0.2a15.9,15.9,0,0,0,15.68-14.2c0.62-9.31,7.33-15.33,17.1-15.33a28.91,28.91,0,0,0,7.88-1.38c5-1.7,7.53-4.58,7.53-8.57a15.77,15.77,0,0,0-15.75-15.76H204.4Zm-49.16,33.08V533.84A16.74,16.74,0,0,1,172,517.11h0.1a13.79,13.79,0,0,1,13.77,13.77c0,0.33,0,.65,0,1l0,0.22c-0.52,7.67-6.07,12.59-14.17,12.59-4.77,0-11.71,1.52-15.52,5.6ZM172,518.08a15.77,15.77,0,0,0-15.75,15.76v15c4.13-3.7,10.75-5.07,15.39-5.1,7.72,0,12.78-4.51,13.22-11.78a0.49,0.49,0,0,1,0-.11h0c0-.31,0-0.6,0-0.91a12.82,12.82,0,0,0-12.8-12.81H172Zm13.82,13.87v0a0.25,0.25,0,0,0,0,0"
              transform="translate(-152.28 -514.16)"/>
    </g>
</svg>